# Blender v2.70 (sub 0) OBJ File: 'world.blend'
# www.blender.org
v -50.000004 0.000000 -50.000031
v 49.999996 0.000000 -50.000031
v -50.000004 100.000000 -49.999969
v 49.999996 100.000000 -49.999969
vt 8.000000 0.000000
vt 8.000000 4.000000
vt 0.000000 4.000000
vt 0.000000 0.000000
vn 0.000000 -0.000001 1.000000
s off
f 2/1/1 4/2/1 3/3/1
f 1/4/1 2/1/1 3/3/1
v -50.000004 0.000000 49.999996
v 49.999996 0.000000 49.999996
v -50.000004 0.000000 -50.000004
v 49.999996 0.000000 -50.000004
vt 8.000000 0.000000
vt 8.000000 8.000000
vt 0.000000 8.000000
vt 0.000100 0.000100
vn 0.000000 1.000000 0.000000
s off
f 6/5/2 8/6/2 7/7/2
f 5/8/2 6/5/2 7/7/2
v -50.000000 0.000000 49.999969
v 50.000000 0.000000 49.999969
v -50.000000 100.000000 50.000031
v 50.000000 100.000000 50.000031
vt 0.000000 4.000000
vt 8.000000 4.000000
vt 8.000000 0.000000
vt 0.000000 0.000000
vn 0.000000 0.000001 -1.000000
s off
f 11/9/3 12/10/3 10/11/3
f 9/12/3 11/9/3 10/11/3
v 50.000000 0.000000 49.999996
v 49.999935 0.000000 -50.000004
v 50.000065 100.000000 49.999996
v 50.000000 100.000000 -50.000004
vt 0.000000 4.000000
vt 8.000000 4.000000
vt 8.000000 0.000000
vt 0.000000 0.000000
vn -1.000000 0.000001 0.000001
s off
f 15/13/4 16/14/4 14/15/4
f 13/16/4 15/13/4 14/15/4
v -50.000000 0.000000 49.999996
v -50.000065 0.000000 -50.000004
v -49.999935 100.000000 49.999996
v -50.000000 100.000000 -50.000004
vt 0.000000 0.000000
vt 8.000000 0.000000
vt 8.000000 4.000000
vt 0.000000 4.000000
vn 1.000000 -0.000001 -0.000001
s off
f 17/17/5 18/18/5 20/19/5
f 19/20/5 17/17/5 20/19/5
v -50.000000 100.000000 50.000000
v 50.000000 100.000000 50.000000
v -50.000000 100.000000 -50.000000
v 50.000000 100.000000 -50.000000
vt 0.000000 8.000000
vt 8.000000 8.000000
vt 8.000000 0.000000
vt 0.000000 0.000000
vn 0.000000 -1.000000 0.000000
s off
f 23/21/6 24/22/6 22/23/6
f 21/24/6 23/21/6 22/23/6
