# Blender v2.70 (sub 0) OBJ File: 'world2.blend'
# www.blender.org
v 40.000000 6.000000 -9.000000
v 40.000000 6.000000 -15.000000
v 42.000000 6.000000 -15.000000
v 42.000000 6.000000 -9.000000
v 40.000000 8.000000 -9.000000
v 40.000000 8.000000 -15.000000
v 42.000000 8.000000 -15.000000
v 42.000000 8.000000 -9.000000
vt 2.000000 0.000100
vt 2.000000 0.999900
vt 0.000100 0.999900
vt 0.999900 0.000100
vt 0.999900 0.999900
vt 0.000100 0.000100
vt 0.000000 0.000000
vn -1.000000 0.000000 0.000000
vn 0.000000 0.000000 -1.000000
vn 1.000000 0.000000 0.000000
vn 0.000000 0.000000 1.000000
vn 0.000000 -1.000000 0.000000
vn 0.000000 1.000000 0.000000
s off
f 6/1/1 2/2/1 1/3/1
f 7/4/2 3/5/2 2/3/2
f 8/3/3 4/6/3 3/1/3
f 5/3/4 1/6/4 4/4/4
f 2/7/5 3/7/5 4/7/5
f 7/2/6 6/3/6 5/6/6
f 5/6/1 6/1/1 1/3/1
f 6/6/2 7/4/2 2/3/2
f 7/2/3 8/3/3 3/1/3
f 8/5/4 5/3/4 4/4/4
f 1/7/5 2/7/5 4/7/5
f 8/1/6 7/2/6 5/6/6
v 28.000002 0.000000 -23.757359
v 23.757359 0.000000 -27.999998
v 27.999998 0.000000 -32.242641
v 32.242641 0.000000 -28.000002
v 28.000002 6.000000 -23.757359
v 23.757359 6.000000 -27.999998
v 27.999998 6.000000 -32.242641
v 32.242641 6.000000 -28.000002
vt 1.000000 0.000000
vt 1.000000 1.000000
vt 0.000000 1.000000
vt 0.000000 0.000000
vn -0.707107 0.000000 0.707107
vn -0.707107 0.000000 -0.707106
vn 0.707107 0.000000 -0.707107
vn 0.707107 0.000000 0.707106
vn 0.000000 -1.000000 0.000000
vn 0.000000 1.000000 0.000000
vn -0.707106 0.000000 0.707108
vn -0.707107 0.000000 -0.707107
vn 0.707106 0.000000 -0.707108
vn 0.707107 0.000000 0.707107
s off
f 14/8/7 10/9/7 9/10/7
f 15/8/8 11/9/8 10/10/8
f 16/8/9 12/9/9 11/10/9
f 13/8/10 9/9/10 12/10/10
f 9/11/11 10/8/11 11/9/11
f 15/8/12 14/9/12 13/10/12
f 13/11/13 14/8/13 9/10/13
f 14/11/14 15/8/14 10/10/14
f 15/11/15 16/8/15 11/10/15
f 16/11/16 13/8/16 12/10/16
f 12/10/11 9/11/11 11/9/11
f 16/11/12 15/8/12 13/10/12
v 40.125004 0.000000 -30.500000
v 30.500000 0.000000 -40.125004
v 40.125004 0.000000 -40.125004
v 40.125004 0.000000 -30.500000
v 40.125004 8.000000 -30.500000
v 30.500000 8.000000 -40.125004
v 40.125004 8.000000 -40.125004
v 40.125004 8.000000 -30.500000
vt 2.000000 0.000084
vt 2.000000 1.000000
vt 0.000084 1.000000
vt 0.000000 0.000000
vt 0.495752 0.504249
vt 0.000070 0.999930
vt 0.000070 0.008568
vt 0.000084 0.000084
vt 0.008870 0.000070
vn -0.707107 0.000000 0.707107
vn 0.000000 0.000000 -1.000000
vn 1.000000 0.000000 0.000000
vn 0.000000 0.000000 1.000000
vn 0.000000 -1.000000 0.000000
vn 0.000000 1.000000 0.000000
s off
f 22/12/17 18/13/17 17/14/17
f 23/15/18 19/15/18 18/15/18
f 24/15/19 20/15/19 19/15/19
f 21/15/20 17/15/20 20/15/20
f 18/15/21 19/15/21 20/15/21
f 23/16/22 22/17/22 21/18/22
f 21/19/17 22/12/17 17/14/17
f 22/15/18 23/15/18 18/15/18
f 23/15/19 24/15/19 19/15/19
f 24/15/20 21/15/20 20/15/20
f 17/15/20 18/15/20 20/15/20
f 24/20/20 23/16/20 21/18/20
v 20.000000 0.000000 50.000000
v 20.000000 0.000000 20.000000
v 50.000000 0.000000 20.000000
v 50.000000 0.000000 50.000000
v 20.000000 2.000000 50.000000
v 20.000000 2.000000 20.000000
v 50.000000 2.000000 20.000000
v 50.000000 2.000000 50.000000
vt 2.000000 0.000100
vt 2.000000 0.999900
vt 0.000100 0.999900
vt 0.000000 0.000000
vt 2.000000 2.000000
vt 0.000100 2.000000
vt 0.000100 0.000100
vn -1.000000 0.000000 0.000000
vn 0.000000 0.000000 -1.000000
vn 1.000000 0.000000 0.000000
vn 0.000000 0.000000 1.000000
vn 0.000000 -1.000000 0.000000
vn 0.000000 1.000000 0.000000
s off
f 30/21/23 26/22/23 25/23/23
f 31/21/24 27/22/24 26/23/24
f 32/24/25 28/24/25 27/24/25
f 29/24/26 25/24/26 28/24/26
f 26/24/27 27/24/27 28/24/27
f 31/25/28 30/26/28 29/27/28
f 29/27/23 30/21/23 25/23/23
f 30/27/24 31/21/24 26/23/24
f 31/24/25 32/24/25 27/24/25
f 32/24/26 29/24/26 28/24/26
f 25/24/27 26/24/27 28/24/27
f 32/21/28 31/25/28 29/27/28
v -30.499992 0.000000 34.500000
v -34.499992 0.000000 34.500000
v -34.500008 0.000000 9.500001
v -30.500008 0.000000 9.499999
v -30.499992 3.000000 34.500000
v -34.499992 3.000000 34.500000
v -34.500008 3.000000 9.500001
v -30.500008 3.000000 9.499999
vt 0.999900 0.000100
vt 0.999900 0.999900
vt 0.000100 0.999900
vt 2.000000 0.000100
vt 2.000000 0.999900
vt 0.000100 0.000100
vt 0.000000 0.000000
vn 0.000000 0.000000 1.000000
vn -1.000000 0.000000 0.000001
vn -0.000001 0.000000 -1.000000
vn 1.000000 0.000000 -0.000001
vn 0.000000 -1.000000 0.000000
vn 0.000000 1.000000 0.000000
s off
f 38/28/29 34/29/29 33/30/29
f 39/31/30 35/32/30 34/30/30
f 40/30/31 36/33/31 35/28/31
f 37/30/32 33/33/32 36/31/32
f 33/34/33 34/34/33 35/34/33
f 39/32/34 38/30/34 37/33/34
f 37/33/29 38/28/29 33/30/29
f 38/33/30 39/31/30 34/30/30
f 39/29/31 40/30/31 35/28/31
f 40/32/32 37/30/32 36/31/32
f 36/34/33 33/34/33 35/34/33
f 40/31/34 39/32/34 37/33/34
v -10.000000 0.000000 10.000000
v -10.000000 0.000000 -10.000000
v 10.000000 0.000000 -10.000000
v 10.000000 0.000000 10.000000
v -10.000000 3.000000 10.000000
v -10.000000 3.000000 -10.000000
v 10.000000 3.000000 -10.000000
v 10.000000 3.000000 10.000000
vt 2.000000 0.000100
vt 2.000000 0.999900
vt 0.000100 0.999900
vt 2.000000 1.000000
vt 0.000100 0.000100
vt 0.000000 0.000000
vt 2.000000 2.000000
vt 0.000117 2.000000
vn -1.000000 0.000000 0.000000
vn 0.000000 0.000000 -1.000000
vn 1.000000 0.000000 0.000000
vn 0.000000 0.000000 1.000000
vn 0.000000 -1.000000 0.000000
vn 0.000000 1.000000 0.000000
s off
f 46/35/35 42/36/35 41/37/35
f 47/35/36 43/38/36 42/37/36
f 48/37/37 44/39/37 43/35/37
f 45/37/38 41/39/38 44/35/38
f 42/40/39 43/40/39 44/40/39
f 47/41/40 46/42/40 45/39/40
f 45/39/35 46/35/35 41/37/35
f 46/39/36 47/35/36 42/37/36
f 47/36/37 48/37/37 43/35/37
f 48/36/38 45/37/38 44/35/38
f 41/40/39 42/40/39 44/40/39
f 48/35/40 47/41/40 45/39/40
v -50.000004 0.000000 -50.000031
v 49.999996 0.000000 -50.000031
v -50.000004 100.000000 -49.999969
v 49.999996 100.000000 -49.999969
vt 8.000000 0.000000
vt 8.000000 8.000000
vt 0.000000 8.000000
vt 0.000000 0.000000
vn 0.000000 -0.000001 1.000000
s off
f 50/43/41 52/44/41 51/45/41
f 49/46/41 50/43/41 51/45/41
v -50.000004 0.000000 49.999996
v 49.999996 0.000000 49.999996
v -50.000004 0.000000 -50.000004
v 49.999996 0.000000 -50.000004
vt 8.000000 0.000000
vt 8.000000 8.000000
vt 0.000000 8.000000
vt 0.000100 0.000100
vn 0.000000 1.000000 0.000000
s off
f 54/47/42 56/48/42 55/49/42
f 53/50/42 54/47/42 55/49/42
v -50.000000 0.000000 49.999969
v 50.000000 0.000000 49.999969
v -50.000000 100.000000 50.000031
v 50.000000 100.000000 50.000031
vt 0.000000 8.000000
vt 8.000000 8.000000
vt 8.000000 0.000000
vt 0.000000 0.000000
vn 0.000000 0.000001 -1.000000
s off
f 59/51/43 60/52/43 58/53/43
f 57/54/43 59/51/43 58/53/43
v 50.000000 0.000000 49.999996
v 49.999935 0.000000 -50.000004
v 50.000065 100.000000 49.999996
v 50.000000 100.000000 -50.000004
vt 0.000000 8.000000
vt 8.000000 8.000000
vt 8.000000 0.000000
vt 0.000000 0.000000
vn -1.000000 0.000001 0.000001
s off
f 63/55/44 64/56/44 62/57/44
f 61/58/44 63/55/44 62/57/44
v -50.000000 0.000000 49.999996
v -50.000065 0.000000 -50.000004
v -49.999935 100.000000 49.999996
v -50.000000 100.000000 -50.000004
vt 0.000000 0.000000
vt 8.000000 0.000000
vt 8.000000 8.000000
vt 0.000000 8.000000
vn 1.000000 -0.000001 -0.000001
s off
f 65/59/45 66/60/45 68/61/45
f 67/62/45 65/59/45 68/61/45
v -50.000000 100.000000 50.000000
v 50.000000 100.000000 50.000000
v -50.000000 100.000000 -50.000000
v 50.000000 100.000000 -50.000000
vt 0.000000 8.000000
vt 8.000000 8.000000
vt 8.000000 0.000000
vt 0.000000 0.000000
vn 0.000000 -1.000000 0.000000
s off
f 71/63/46 72/64/46 70/65/46
f 69/66/46 71/63/46 70/65/46
v -5.000000 3.000000 5.000000
v -5.000000 3.000000 -5.000000
v 5.000000 3.000000 -5.000000
v 5.000000 3.000000 5.000000
v -5.000000 13.000000 5.000000
v -5.000000 13.000000 -5.000000
v 5.000000 13.000000 -5.000000
v 5.000000 13.000000 5.000000
vt 0.000100 2.000000
vt 0.000100 0.000100
vt 2.000000 0.000100
vt 2.000000 2.000000
vt 0.000000 0.000000
vt 2.000000 0.000000
vn 1.000000 0.000000 0.000000
vn -1.000000 0.000000 0.000000
vn 0.000000 0.000000 -1.000000
vn 0.000000 0.000000 1.000000
vn 0.000000 -1.000000 0.000000
vn 0.000000 1.000000 0.000000
s off
f 80/67/47 76/68/47 75/69/47
f 79/70/47 80/67/47 75/69/47
f 78/69/48 74/70/48 73/67/48
f 79/69/49 75/70/49 74/67/49
f 77/67/50 73/68/50 76/69/50
f 74/71/51 75/71/51 76/71/51
f 79/70/52 78/67/52 77/68/52
f 77/68/48 78/69/48 73/67/48
f 78/68/49 79/69/49 74/67/49
f 80/70/50 77/67/50 76/69/50
f 73/71/51 74/71/51 76/71/51
f 80/72/52 79/70/52 77/68/52
v -39.999992 2.000000 -20.000004
v -49.999992 2.000000 -19.999996
v -50.000008 2.000000 -49.999996
v -40.000008 2.000000 -50.000004
v -39.999992 4.000000 -20.000004
v -49.999992 4.000000 -19.999996
v -50.000008 4.000000 -49.999996
v -40.000008 4.000000 -50.000004
vt 0.999900 0.000100
vt 0.999900 1.000000
vt 0.000100 1.000000
vt 0.000000 0.000000
vt 0.000100 0.000100
vt 2.000000 0.000100
vt 2.000000 1.000000
vt 0.000100 0.999900
vn 0.000001 0.000000 1.000000
vn -1.000000 0.000000 0.000001
vn -0.000001 0.000000 -1.000000
vn 1.000000 0.000000 -0.000001
vn 0.000000 -1.000000 0.000000
vn 0.000000 1.000000 0.000000
s off
f 86/73/53 82/74/53 81/75/53
f 87/76/54 83/76/54 82/76/54
f 88/76/55 84/76/55 83/76/55
f 85/75/56 81/77/56 84/78/56
f 82/76/57 83/76/57 84/76/57
f 88/78/58 87/79/58 86/80/58
f 85/77/53 86/73/53 81/75/53
f 86/76/54 87/76/54 82/76/54
f 87/76/55 88/76/55 83/76/55
f 88/79/56 85/75/56 84/78/56
f 81/76/57 82/76/57 84/76/57
f 85/77/58 88/78/58 86/80/58
v -30.600000 0.000000 34.500000
v -30.600000 0.000000 30.500000
v -9.600000 0.000000 30.500000
v -9.600000 0.000000 34.500000
v -30.600000 3.000000 34.500000
v -30.600000 3.000000 30.500000
v -9.600000 3.000000 30.500000
v -9.600000 3.000000 34.500000
vt 0.999900 0.000100
vt 0.999900 0.999900
vt 0.000100 0.999900
vt 2.000000 0.000100
vt 2.000000 0.999900
vt 0.000100 0.000100
vt 0.000000 0.000000
vn -1.000000 0.000000 0.000000
vn 0.000000 0.000000 -1.000000
vn 1.000000 0.000000 0.000000
vn 0.000000 0.000000 1.000000
vn 0.000000 -1.000000 0.000000
vn 0.000000 1.000000 0.000000
s off
f 94/81/59 90/82/59 89/83/59
f 95/84/60 91/85/60 90/83/60
f 96/83/61 92/86/61 91/81/61
f 93/83/62 89/86/62 92/84/62
f 90/87/63 91/87/63 92/87/63
f 95/85/64 94/83/64 93/86/64
f 93/86/59 94/81/59 89/83/59
f 94/86/60 95/84/60 90/83/60
f 95/82/61 96/83/61 91/81/61
f 96/85/62 93/83/62 92/84/62
f 89/87/63 90/87/63 92/87/63
f 96/84/64 95/85/64 93/86/64
v 20.000000 0.000000 -40.000000
v 20.000000 0.000000 -50.000000
v 50.000000 0.000000 -50.000000
v 50.000000 0.000000 -40.000000
v 20.000000 8.000000 -40.000000
v 20.000000 8.000000 -50.000000
v 50.000000 8.000000 -50.000000
v 50.000000 8.000000 -40.000000
vt 0.999900 0.000100
vt 0.999900 0.999900
vt 0.000100 0.999900
vt 0.000000 0.000000
vt 0.000100 0.000100
vt 2.000000 0.000100
vt 2.000000 0.999900
vn -1.000000 0.000000 0.000000
vn 0.000000 0.000000 -1.000000
vn 1.000000 0.000000 0.000000
vn 0.000000 0.000000 1.000000
vn 0.000000 -1.000000 0.000000
vn 0.000000 1.000000 0.000000
s off
f 102/88/65 98/89/65 97/90/65
f 103/91/66 99/91/66 98/91/66
f 104/91/67 100/91/67 99/91/67
f 101/90/68 97/92/68 100/93/68
f 98/91/69 99/91/69 100/91/69
f 103/94/70 102/90/70 101/92/70
f 101/92/65 102/88/65 97/90/65
f 102/91/66 103/91/66 98/91/66
f 103/91/67 104/91/67 99/91/67
f 104/94/68 101/90/68 100/93/68
f 97/91/69 98/91/69 100/91/69
f 104/93/70 103/94/70 101/92/70
v 20.000000 2.000000 50.000000
v 20.000000 2.000000 40.000000
v 50.000000 2.000000 40.000000
v 50.000000 2.000000 50.000000
v 20.000000 4.000000 50.000000
v 20.000000 4.000000 40.000000
v 50.000000 4.000000 40.000000
v 50.000000 4.000000 50.000000
vt 0.999900 0.000100
vt 0.999900 0.999900
vt 0.000100 0.999900
vt 2.000000 0.000100
vt 2.000000 0.999900
vt 0.000000 0.000000
vt 0.000100 0.000100
vn -1.000000 0.000000 0.000000
vn 0.000000 0.000000 -1.000000
vn 1.000000 0.000000 0.000000
vn 0.000000 0.000000 1.000000
vn 0.000000 -1.000000 0.000000
vn 0.000000 1.000000 0.000000
s off
f 110/95/71 106/96/71 105/97/71
f 111/98/72 107/99/72 106/97/72
f 112/100/73 108/100/73 107/100/73
f 109/100/74 105/100/74 108/100/74
f 106/100/75 107/100/75 108/100/75
f 111/99/76 110/97/76 109/101/76
f 109/101/71 110/95/71 105/97/71
f 110/101/72 111/98/72 106/97/72
f 111/100/73 112/100/73 107/100/73
f 112/100/74 109/100/74 108/100/74
f 105/100/75 106/100/75 108/100/75
f 112/98/76 111/99/76 109/101/76
v 50.000008 0.000000 -20.000004
v 40.000008 0.000000 -19.999996
v 39.999992 0.000000 -49.999996
v 49.999992 0.000000 -50.000004
v 50.000008 8.000000 -20.000004
v 40.000008 8.000000 -19.999996
v 39.999992 8.000000 -49.999996
v 49.999992 8.000000 -50.000004
vt 0.999900 0.000100
vt 0.999900 0.999900
vt 0.000100 0.999900
vt 2.000000 0.000100
vt 2.000000 0.999900
vt 0.000000 0.000000
vt 0.000100 0.000100
vn 0.000001 0.000000 1.000000
vn -1.000000 0.000000 0.000001
vn -0.000001 0.000000 -1.000000
vn 1.000000 0.000000 -0.000001
vn 0.000000 -1.000000 0.000000
vn 0.000000 1.000000 0.000000
s off
f 118/102/77 114/103/77 113/104/77
f 119/105/78 115/106/78 114/104/78
f 120/107/79 116/107/79 115/107/79
f 117/107/80 113/107/80 116/107/80
f 114/107/81 115/107/81 116/107/81
f 120/105/82 119/106/82 118/104/82
f 117/108/77 118/102/77 113/104/77
f 118/108/78 119/105/78 114/104/78
f 119/107/79 120/107/79 115/107/79
f 120/107/80 117/107/80 116/107/80
f 113/107/81 114/107/81 116/107/81
f 117/108/82 120/105/82 118/104/82
v -50.000000 0.000000 -20.000000
v -50.000000 0.000000 -50.000000
v -20.000000 0.000000 -50.000000
v -20.000000 0.000000 -20.000000
v -50.000000 2.000000 -20.000000
v -50.000000 2.000000 -50.000000
v -20.000000 2.000000 -50.000000
v -20.000000 2.000000 -20.000000
vt 0.000000 0.000000
vt 0.000100 0.999900
vt 0.000100 0.000100
vt 2.000000 0.000100
vt 2.000000 2.000000
vt 0.000100 2.000000
vt 2.000000 0.999900
vn -1.000000 0.000000 0.000000
vn 0.000000 0.000000 -1.000000
vn 1.000000 0.000000 0.000000
vn 0.000000 0.000000 1.000000
vn 0.000000 -1.000000 0.000000
vn 0.000000 1.000000 0.000000
s off
f 126/109/83 122/109/83 121/109/83
f 127/109/84 123/109/84 122/109/84
f 128/110/85 124/111/85 123/112/85
f 125/110/86 121/111/86 124/112/86
f 122/109/87 123/109/87 124/109/87
f 127/113/88 126/114/88 125/111/88
f 125/109/83 126/109/83 121/109/83
f 126/109/84 127/109/84 122/109/84
f 127/115/85 128/110/85 123/112/85
f 128/115/86 125/110/86 124/112/86
f 121/109/87 122/109/87 124/109/87
f 128/112/88 127/113/88 125/111/88
v -20.000000 0.000000 -40.000000
v -20.000000 0.000000 -50.000000
v 20.000000 0.000000 -50.000000
v 20.000000 0.000000 -40.000000
v -20.000000 6.000000 -40.000000
v -20.000000 6.000000 -50.000000
v 20.000000 6.000000 -50.000000
v 20.000000 6.000000 -40.000000
vt 0.999900 0.000100
vt 0.999900 0.999900
vt 0.000100 0.999900
vt 0.000000 0.000000
vt 0.000100 0.000100
vt 4.000000 0.000100
vt 4.000000 0.999900
vn -1.000000 0.000000 0.000000
vn 0.000000 0.000000 -1.000000
vn 1.000000 0.000000 0.000000
vn 0.000000 0.000000 1.000000
vn 0.000000 -1.000000 0.000000
vn 0.000000 1.000000 0.000000
s off
f 134/116/89 130/117/89 129/118/89
f 135/119/90 131/119/90 130/119/90
f 136/119/91 132/119/91 131/119/91
f 133/118/92 129/120/92 132/121/92
f 130/119/93 131/119/93 132/119/93
f 135/122/94 134/118/94 133/120/94
f 133/120/89 134/116/89 129/118/89
f 134/119/90 135/119/90 130/119/90
f 135/119/91 136/119/91 131/119/91
f 136/122/92 133/118/92 132/121/92
f 129/119/93 130/119/93 132/119/93
f 136/121/94 135/122/94 133/120/94
v 50.000011 0.000000 19.999996
v 40.000011 0.000000 20.000004
v 39.999989 0.000000 -19.999996
v 49.999989 0.000000 -20.000004
v 50.000011 6.000000 19.999996
v 40.000011 6.000000 20.000004
v 39.999989 6.000000 -19.999996
v 49.999989 6.000000 -20.000004
vt 0.999900 0.000100
vt 0.999900 0.999900
vt 0.000100 0.999900
vt 4.000000 0.000100
vt 4.000000 0.999900
vt 0.000000 0.000000
vt 0.000100 0.000100
vn 0.000001 0.000000 1.000000
vn -1.000000 0.000000 0.000001
vn -0.000001 0.000000 -1.000000
vn 1.000000 0.000000 -0.000001
vn 0.000000 -1.000000 0.000000
vn 0.000000 1.000000 0.000000
s off
f 142/123/95 138/124/95 137/125/95
f 143/126/96 139/127/96 138/125/96
f 144/128/97 140/128/97 139/128/97
f 141/128/98 137/128/98 140/128/98
f 138/128/99 139/128/99 140/128/99
f 143/127/100 142/125/100 141/129/100
f 141/129/95 142/123/95 137/125/95
f 142/129/96 143/126/96 138/125/96
f 143/128/97 144/128/97 139/128/97
f 144/128/98 141/128/98 140/128/98
f 137/128/99 138/128/99 140/128/99
f 144/126/100 143/127/100 141/129/100
v -50.000000 2.000000 -40.000000
v -50.000000 2.000000 -50.000000
v -20.000000 2.000000 -50.000000
v -20.000000 2.000000 -40.000000
v -50.000000 4.000000 -40.000000
v -50.000000 4.000000 -50.000000
v -20.000000 4.000000 -50.000000
v -20.000000 4.000000 -40.000000
vt 0.000000 0.000000
vt 0.000100 1.000000
vt 0.000100 0.000100
vt 2.000000 0.000100
vt 2.000000 0.999900
vt 0.000100 0.999900
vt 2.000000 1.000000
vn -1.000000 0.000000 0.000000
vn 0.000000 0.000000 -1.000000
vn 1.000000 0.000000 0.000000
vn 0.000000 0.000000 1.000000
vn 0.000000 -1.000000 0.000000
vn 0.000000 1.000000 0.000000
s off
f 150/130/101 146/130/101 145/130/101
f 151/130/102 147/130/102 146/130/102
f 152/130/103 148/130/103 147/130/103
f 149/131/104 145/132/104 148/133/104
f 146/130/105 147/130/105 148/130/105
f 151/134/106 150/135/106 149/132/106
f 149/130/101 150/130/101 145/130/101
f 150/130/102 151/130/102 146/130/102
f 151/130/103 152/130/103 147/130/103
f 152/136/104 149/131/104 148/133/104
f 145/130/105 146/130/105 148/130/105
f 152/133/106 151/134/106 149/132/106
v 50.000008 2.000000 49.999996
v 40.000008 2.000000 50.000004
v 39.999992 2.000000 20.000004
v 49.999992 2.000000 19.999996
v 50.000008 4.000000 49.999996
v 40.000008 4.000000 50.000004
v 39.999992 4.000000 20.000004
v 49.999992 4.000000 19.999996
vt 0.000000 0.000000
vt 2.000000 0.000100
vt 2.000000 0.999900
vt 0.000100 0.999900
vt 0.000100 0.000100
vn 0.000001 0.000000 1.000000
vn -1.000000 0.000000 0.000001
vn -0.000001 0.000000 -1.000000
vn 1.000000 0.000000 -0.000001
vn 0.000000 -1.000000 0.000000
vn 0.000000 1.000000 0.000000
s off
f 158/137/107 154/137/107 153/137/107
f 159/138/108 155/139/108 154/140/108
f 160/137/109 156/137/109 155/137/109
f 157/137/110 153/137/110 156/137/110
f 154/137/111 155/137/111 156/137/111
f 160/138/112 159/139/112 158/140/112
f 157/137/107 158/137/107 153/137/107
f 158/141/108 159/138/108 154/140/108
f 159/137/109 160/137/109 155/137/109
f 160/137/110 157/137/110 156/137/110
f 153/137/111 154/137/111 156/137/111
f 157/141/112 160/138/112 158/140/112
v 40.000000 6.000000 15.000000
v 40.000000 6.000000 9.000000
v 42.000000 6.000000 9.000000
v 42.000000 6.000000 15.000000
v 40.000000 8.000000 15.000000
v 40.000000 8.000000 9.000000
v 42.000000 8.000000 9.000000
v 42.000000 8.000000 15.000000
vt 2.000000 0.000100
vt 2.000000 0.999900
vt 0.000100 0.999900
vt 0.999900 0.000100
vt 0.999900 0.999900
vt 0.000100 0.000100
vt 0.000000 0.000000
vn -1.000000 0.000000 0.000000
vn 0.000000 0.000000 -1.000000
vn 1.000000 0.000000 0.000000
vn 0.000000 0.000000 1.000000
vn 0.000000 -1.000000 0.000000
vn 0.000000 1.000000 0.000000
s off
f 166/142/113 162/143/113 161/144/113
f 167/145/114 163/146/114 162/144/114
f 168/144/115 164/147/115 163/142/115
f 165/144/116 161/147/116 164/145/116
f 162/148/117 163/148/117 164/148/117
f 167/143/118 166/144/118 165/147/118
f 165/147/113 166/142/113 161/144/113
f 166/147/114 167/145/114 162/144/114
f 167/143/115 168/144/115 163/142/115
f 168/146/116 165/144/116 164/145/116
f 161/148/117 162/148/117 164/148/117
f 168/142/118 167/143/118 165/147/118
v -8.999999 6.000000 -40.000000
v -14.999999 6.000000 -40.000000
v -15.000001 6.000000 -42.000000
v -9.000001 6.000000 -42.000000
v -8.999999 8.000000 -40.000000
v -14.999999 8.000000 -40.000000
v -15.000001 8.000000 -42.000000
v -9.000001 8.000000 -42.000000
vt 2.000000 0.000100
vt 2.000000 0.999900
vt 0.000100 0.999900
vt 0.999900 0.000100
vt 0.999900 0.999900
vt 0.000100 0.000100
vt 0.000000 0.000000
vn 0.000000 0.000000 1.000000
vn -1.000000 0.000000 0.000001
vn 0.000000 0.000000 -1.000000
vn 1.000000 0.000000 -0.000001
vn 0.000000 -1.000000 0.000000
vn 0.000000 1.000000 0.000000
s off
f 174/149/119 170/150/119 169/151/119
f 175/152/120 171/153/120 170/151/120
f 176/151/121 172/154/121 171/149/121
f 173/151/122 169/154/122 172/152/122
f 169/155/123 170/155/123 171/155/123
f 175/150/124 174/151/124 173/154/124
f 173/154/119 174/149/119 169/151/119
f 174/154/120 175/152/120 170/151/120
f 175/150/121 176/151/121 171/149/121
f 176/153/122 173/151/122 172/152/122
f 172/155/123 169/155/123 171/155/123
f 176/149/124 175/150/124 173/154/124
v 40.000000 6.000000 3.000000
v 40.000000 6.000000 -3.000000
v 42.000000 6.000000 -3.000000
v 42.000000 6.000000 3.000000
v 40.000000 8.000000 3.000000
v 40.000000 8.000000 -3.000000
v 42.000000 8.000000 -3.000000
v 42.000000 8.000000 3.000000
vt 2.000000 0.000100
vt 2.000000 0.999900
vt 0.000100 0.999900
vt 0.999900 0.000100
vt 0.999900 0.999900
vt 0.000100 0.000100
vt 0.000000 0.000000
vn -1.000000 0.000000 0.000000
vn 0.000000 0.000000 -1.000000
vn 1.000000 0.000000 0.000000
vn 0.000000 0.000000 1.000000
vn 0.000000 -1.000000 0.000000
vn 0.000000 1.000000 0.000000
s off
f 182/156/125 178/157/125 177/158/125
f 183/159/126 179/160/126 178/158/126
f 184/158/127 180/161/127 179/156/127
f 181/158/128 177/161/128 180/159/128
f 178/162/129 179/162/129 180/162/129
f 183/157/130 182/158/130 181/161/130
f 181/161/125 182/156/125 177/158/125
f 182/161/126 183/159/126 178/158/126
f 183/157/127 184/158/127 179/156/127
f 184/160/128 181/158/128 180/159/128
f 177/162/129 178/162/129 180/162/129
f 184/156/130 183/157/130 181/161/130
v 15.000001 6.000000 -40.000000
v 9.000001 6.000000 -40.000000
v 8.999999 6.000000 -42.000000
v 14.999999 6.000000 -42.000000
v 15.000001 8.000000 -40.000000
v 9.000001 8.000000 -40.000000
v 8.999999 8.000000 -42.000000
v 14.999999 8.000000 -42.000000
vt 2.000000 0.000100
vt 2.000000 0.999900
vt 0.000100 0.999900
vt 0.999900 0.000100
vt 0.999900 0.999900
vt 0.000100 0.000100
vt 0.000000 0.000000
vn 0.000000 0.000000 1.000000
vn -1.000000 0.000000 0.000001
vn 0.000000 0.000000 -1.000000
vn 1.000000 0.000000 -0.000001
vn 0.000000 -1.000000 0.000000
vn 0.000000 1.000000 0.000000
s off
f 190/163/131 186/164/131 185/165/131
f 191/166/132 187/167/132 186/165/132
f 192/165/133 188/168/133 187/163/133
f 189/165/134 185/168/134 188/166/134
f 185/169/135 186/169/135 187/169/135
f 191/164/136 190/165/136 189/168/136
f 189/168/131 190/163/131 185/165/131
f 190/168/132 191/166/132 186/165/132
f 191/164/133 192/165/133 187/163/133
f 192/167/134 189/165/134 188/166/134
f 188/169/135 185/169/135 187/169/135
f 192/163/136 191/164/136 189/168/136
v 3.000001 6.000000 -40.000000
v -2.999999 6.000000 -40.000000
v -3.000001 6.000000 -42.000000
v 2.999999 6.000000 -42.000000
v 3.000001 8.000000 -40.000000
v -2.999999 8.000000 -40.000000
v -3.000001 8.000000 -42.000000
v 2.999999 8.000000 -42.000000
vt 2.000000 0.000100
vt 2.000000 0.999900
vt 0.000100 0.999900
vt 0.999900 0.000100
vt 0.999900 0.999900
vt 0.000100 0.000100
vt 0.000000 0.000000
vn 0.000000 0.000000 1.000000
vn -1.000000 0.000000 0.000001
vn 0.000000 0.000000 -1.000000
vn 1.000000 0.000000 -0.000001
vn 0.000000 -1.000000 0.000000
vn 0.000000 1.000000 0.000000
s off
f 198/170/137 194/171/137 193/172/137
f 199/173/138 195/174/138 194/172/138
f 200/172/139 196/175/139 195/170/139
f 197/172/140 193/175/140 196/173/140
f 193/176/141 194/176/141 195/176/141
f 199/171/142 198/172/142 197/175/142
f 197/175/137 198/170/137 193/172/137
f 198/175/138 199/173/138 194/172/138
f 199/171/139 200/172/139 195/170/139
f 200/174/140 197/172/140 196/173/140
f 196/176/141 193/176/141 195/176/141
f 200/170/142 199/171/142 197/175/142
